{"asset":{"generator":"3D Builder","version":"2.0"},"scene":0,"scenes":[{"nodes":[0,1,2,3]}],"nodes":[{"mesh":0,"matrix":[1,0,0,0,0,-1.1920928955078125E-7,-0.99999988079071045,0,0,0.99999988079071045,-1.1920928955078125E-7,0,-104.94821929931641,46.492866516113281,-72.026138305664063,1]},{"mesh":1,"matrix":[1,0,0,0,0,-1.1920928955078125E-7,-0.99999988079071045,0,0,0.99999988079071045,-1.1920928955078125E-7,0,-104.94821929931641,46.492866516113281,-72.026138305664063,1]},{"mesh":2,"matrix":[1,0,0,0,0,-1.1920928955078125E-7,-0.99999988079071045,0,0,0.99999988079071045,-1.1920928955078125E-7,0,-104.94821929931641,46.492866516113281,-72.026138305664063,1]},{"mesh":3,"matrix":[1,0,0,0,0,-1.1920928955078125E-7,-0.99999988079071045,0,0,0.99999988079071045,-1.1920928955078125E-7,0,-104.94821929931641,46.492866516113281,-72.026138305664063,1]}],"meshes":[{"primitives":[{"attributes":{"POSITION":0,"TEXCOORD_0":1},"mode":4,"indices":2,"material":0}]},{"primitives":[{"attributes":{"POSITION":3,"TEXCOORD_0":4},"mode":4,"indices":5,"material":0}]},{"primitives":[{"attributes":{"POSITION":6,"TEXCOORD_0":7},"mode":4,"indices":8,"material":0}]},{"primitives":[{"attributes":{"POSITION":9,"TEXCOORD_0":10},"mode":4,"indices":11,"material":0}]}],"materials":[{"pbrMetallicRoughness":{"baseColorFactor":[1,1,1,1],"metallicFactor":1,"roughnessFactor":1,"baseColorTexture":{"index":0,"texCoord":0},"metallicRoughnessTexture":{"index":1,"texCoord":0}},"alphaMode":"OPAQUE"}],"textures":[{"source":0,"sampler":0},{"source":1,"sampler":0}],"images":[{"uri":"textures\\lambert1_baseColor.png"},{"uri":"textures\\lambert1_metallicRoughness_10852638490067281019.png"}],"samplers":[{"magFilter":9729,"wrapS":10497,"wrapT":10497}],"accessors":[{"bufferView":0,"byteOffset":0,"count":68,"componentType":5126,"type":"VEC3","min":[0.89974761009216309,-5.9062957763671875,-33.198688507080078],"max":[2.4479560852050781,0.086017608642578125,-27.077259063720703]},{"bufferView":1,"byteOffset":0,"count":68,"componentType":5126,"type":"VEC2"},{"bufferView":2,"byteOffset":0,"count":204,"componentType":5125,"type":"SCALAR"},{"bufferView":3,"byteOffset":0,"count":52,"componentType":5126,"type":"VEC3","min":[2.4479570388793945,-5.5254364013671875,-33.02459716796875],"max":[197.53324890136719,-0.29484176635742188,-27.793994903564453]},{"bufferView":4,"byteOffset":0,"count":52,"componentType":5126,"type":"VEC2"},{"bufferView":5,"byteOffset":0,"count":216,"componentType":5125,"type":"SCALAR"},{"bufferView":6,"byteOffset":0,"count":68,"componentType":5126,"type":"VEC3","min":[197.455078125,-5.9062995910644531,-33.198688507080078],"max":[199.0032958984375,0.0860137939453125,-27.077259063720703]},{"bufferView":7,"byteOffset":0,"count":68,"componentType":5126,"type":"VEC2"},{"bufferView":8,"byteOffset":0,"count":204,"componentType":5125,"type":"SCALAR"},{"bufferView":9,"byteOffset":0,"count":40,"componentType":5126,"type":"VEC3","min":[0,-7.8165779113769531,-27.191503524780273],"max":[199.98123168945312,2.0827217102050781,-21.593105316162109]},{"bufferView":10,"byteOffset":0,"count":40,"componentType":5126,"type":"VEC2"},{"bufferView":11,"byteOffset":0,"count":132,"componentType":5125,"type":"SCALAR"}],"bufferViews":[{"buffer":0,"byteOffset":0,"byteLength":816,"byteStride":12,"target":34962},{"buffer":0,"byteOffset":816,"byteLength":544,"byteStride":8,"target":34962},{"buffer":0,"byteOffset":1360,"byteLength":816,"target":34963},{"buffer":0,"byteOffset":2176,"byteLength":624,"byteStride":12,"target":34962},{"buffer":0,"byteOffset":2800,"byteLength":416,"byteStride":8,"target":34962},{"buffer":0,"byteOffset":3216,"byteLength":864,"target":34963},{"buffer":0,"byteOffset":4080,"byteLength":816,"byteStride":12,"target":34962},{"buffer":0,"byteOffset":4896,"byteLength":544,"byteStride":8,"target":34962},{"buffer":0,"byteOffset":5440,"byteLength":816,"target":34963},{"buffer":0,"byteOffset":6256,"byteLength":480,"byteStride":12,"target":34962},{"buffer":0,"byteOffset":6736,"byteLength":320,"byteStride":8,"target":34962},{"buffer":0,"byteOffset":7056,"byteLength":528,"target":34963}],"buffers":[{"byteLength":7584,"uri":"scene.bin"}]}